 http://i26.photobucket.com/albums/c119/manojb/good.gif 
http://i26.photobucket.com/albums/c119/manojb/vlcsnap-2013-02-05-14h20m37s171.png 
http://i26.photobucket.com/albums/c119/manojb/vlcsnap-2013-02-05-14h20m43s236.png 
http://i26.photobucket.com/albums/c119/manojb/vlcsnap-2013-02-05-14h21m05s197.png 
http://i26.photobucket.com/albums/c119/manojb/vlcsnap-2013-02-05-14h21m19s84.png

Info - 
Watch the Story of Mushika Becomes Ganesha's Vehicle from the Ganesha series - Marathi Kids Animation Anecdotes and Stories that narrate the greatness of Lord Ganesha - The Elephant.

Media Info - 
General
Complete name                  : Ganpatiche Vahan Undir Jhale.avi
Format                         : AVI
Format/Info                    : Audio Video Interleave
File size                      : 17.1 MiB
Duration                       : 17h 56mn
Overall bit rate               : 2 221 bps

Video
ID                             : 0
Format                         : MPEG-4 Visual
Format profile                 : Advanced Simple@L1
Format settings, BVOP          : 2
Format settings, QPel          : No
Format settings, GMC           : No warppoints
Format settings, Matrix        : Default (H.263)
Codec ID                       : DIVX
Codec ID/Info                  : Project Mayo
Codec ID/Hint                  : DivX 4
Duration                       : 3mn 57s
Bit rate                       : 486 Kbps
Width                          : 480 pixels
Height                         : 360 pixels
Display aspect ratio           : 4:3
Frame rate                     : 25.000 fps
Color space                    : YUV
Chroma subsampling             : 4:2:0
Bit depth                      : 8 bits
Scan type                      : Progressive
Compression mode               : Lossy
Bits/(Pixel*Frame)             : 0.113
Stream size                    : 13.8 MiB (81%)
Writing library                : Lavc54.59.100

Audio
ID                             : 1
Format                         : AAC
Format/Info                    : Advanced Audio Codec
Format profile                 : LC
Codec ID                       : FF
Duration                       : 17h 56mn
Source duration                : 2mn 53s
Bit rate                       : 128 Kbps
Channel(s)                     : 2 channels
Channel positions              : Front: L R
Sampling rate                  : 44.1 KHz
Compression mode               : Lossy
Stream size                    : 2.65 MiB (16%)
Alignment                      : Split accross interleaves
Interleave, duration           : 23 ms (0.58 video frame)

Ripper : Manojvb

Extreme 24x7 Seeding


Enjoy TMB Release!